<?xml version="1.0" encoding="UTF-8" standalone="no"?>
<!-- Created with Inkscape (http://www.inkscape.org/) -->

<svg
   width="996.71924"
   height="231.87155"
   viewBox="0 0 263.7153 61.349346"
   version="1.1"
   id="svg1431"
   inkscape:version="1.1 (c68e22c387, 2021-05-23)"
   sodipodi:docname="final_banner_vector.svg"
   inkscape:export-filename="C:\Users\davee\Downloads\final_banner.png"
   inkscape:export-xdpi="278"
   inkscape:export-ydpi="278"
   xmlns:inkscape="http://www.inkscape.org/namespaces/inkscape"
   xmlns:sodipodi="http://sodipodi.sourceforge.net/DTD/sodipodi-0.dtd"
   xmlns:xlink="http://www.w3.org/1999/xlink"
   xmlns="http://www.w3.org/2000/svg"
   xmlns:svg="http://www.w3.org/2000/svg">
  <sodipodi:namedview
     id="namedview1433"
     pagecolor="#ffffff"
     bordercolor="#666666"
     borderopacity="1.0"
     inkscape:pageshadow="2"
     inkscape:pageopacity="0.0"
     inkscape:pagecheckerboard="0"
     inkscape:document-units="mm"
     showgrid="false"
     fit-margin-top="20"
     fit-margin-left="20"
     fit-margin-right="20"
     fit-margin-bottom="20"
     units="px"
     inkscape:zoom="0.42582772"
     inkscape:cx="313.50707"
     inkscape:cy="124.46348"
     inkscape:window-width="1500"
     inkscape:window-height="975"
     inkscape:window-x="-7"
     inkscape:window-y="-7"
     inkscape:window-maximized="1"
     inkscape:current-layer="layer1" />
  <defs
     id="defs1428">
    <linearGradient
       inkscape:collect="always"
       xlink:href="#linearGradient45475"
       id="linearGradient779"
       gradientUnits="userSpaceOnUse"
       gradientTransform="matrix(0.23551565,0.05855551,0.05038927,-0.27368407,-28.259424,154.34323)"
       x1="7.8517632"
       y1="-27.24234"
       x2="871.12549"
       y2="66.829132" />
    <linearGradient
       inkscape:collect="always"
       id="linearGradient45475">
      <stop
         style="stop-color:#502d16;stop-opacity:1"
         offset="0"
         id="stop45471" />
      <stop
         style="stop-color:#708d1c;stop-opacity:0.96470588;"
         offset="0.21474572"
         id="stop52229" />
      <stop
         style="stop-color:#7fb81f;stop-opacity:1"
         offset="0.38334322"
         id="stop47276" />
      <stop
         style="stop-color:#00be32;stop-opacity:1"
         offset="0.62442541"
         id="stop52551" />
      <stop
         style="stop-color:#00ffff;stop-opacity:1"
         offset="1"
         id="stop45473" />
    </linearGradient>
    <linearGradient
       inkscape:collect="always"
       xlink:href="#linearGradient1005"
       id="linearGradient1007"
       x1="104.67229"
       y1="114.9107"
       x2="288.90512"
       y2="117.24058"
       gradientUnits="userSpaceOnUse"
       gradientTransform="matrix(1.1926185,0,0,1.1926185,-158.24815,5.7150619)" />
    <linearGradient
       inkscape:collect="always"
       id="linearGradient1005">
      <stop
         style="stop-color:#0000bd;stop-opacity:1"
         offset="0"
         id="stop1001" />
      <stop
         style="stop-color:#2a7fff;stop-opacity:1"
         offset="1"
         id="stop1003" />
    </linearGradient>
    <linearGradient
       inkscape:collect="always"
       xlink:href="#linearGradient40106"
       id="linearGradient1888"
       x1="19.017467"
       y1="33.454079"
       x2="17.661211"
       y2="4.5206389"
       gradientUnits="userSpaceOnUse" />
    <linearGradient
       inkscape:collect="always"
       id="linearGradient40106">
      <stop
         style="stop-color:#589632;stop-opacity:1"
         offset="0"
         id="stop40102" />
      <stop
         style="stop-color:#93b023;stop-opacity:1"
         offset="1"
         id="stop40104" />
    </linearGradient>
    <linearGradient
       inkscape:collect="always"
       xlink:href="#linearGradient45475"
       id="linearGradient22804"
       gradientUnits="userSpaceOnUse"
       gradientTransform="matrix(0.23551565,0.05855551,0.05038927,-0.27368407,-28.259505,154.34323)"
       x1="7.8517632"
       y1="-27.24234"
       x2="871.12549"
       y2="66.829132" />
    <linearGradient
       inkscape:collect="always"
       xlink:href="#linearGradient40106"
       id="linearGradient1620"
       gradientUnits="userSpaceOnUse"
       x1="19.017467"
       y1="33.454079"
       x2="17.661211"
       y2="4.5206389" />
    <linearGradient
       inkscape:collect="always"
       xlink:href="#linearGradient40106"
       id="linearGradient1622"
       gradientUnits="userSpaceOnUse"
       x1="19.017467"
       y1="33.454079"
       x2="17.661211"
       y2="4.5206389" />
    <linearGradient
       inkscape:collect="always"
       xlink:href="#linearGradient40106"
       id="linearGradient1624"
       gradientUnits="userSpaceOnUse"
       x1="19.017467"
       y1="33.454079"
       x2="17.661211"
       y2="4.5206389" />
  </defs>
  <g
     inkscape:label="Layer 1"
     inkscape:groupmode="layer"
     id="layer1"
     transform="translate(39.429982,-117.6306)"
     style="display:inline">
    <g
       id="g6497">
      <path
         style="display:inline;fill:url(#linearGradient779);fill-opacity:1;stroke:#000000;stroke-width:0;stroke-linecap:butt;stroke-linejoin:miter;stroke-miterlimit:4;stroke-dasharray:none;stroke-opacity:1"
         d="m -13.415869,166.77917 c 14.7078404,-3.81825 29.994126,-11.9306 50.222311,-4.46817 23.784215,8.7743 33.159011,7.22386 48.609762,3.0805 36.298226,-9.73393 60.644396,1.36757 74.941926,5.67241 15.77975,4.75111 27.85608,1.95476 34.97482,0.12328 10.85064,-2.79159 20.40517,-11.58864 20.40517,-11.58864 -18.69514,9.77337 -35.05459,13.81661 -60.7485,3.80991 -11.56585,-4.5044 -38.36163,-13.31774 -69.956464,-5.666 -30.694796,7.43375 -28.557426,0.81832 -46.498189,-5.04815 -19.370953,-6.33415 -29.0082471,-2.72303 -43.5956864,1.72432 -14.1640656,4.31828 -19.8278866,2.50087 -29.0775956,1.74144 0,0 0.0037,1.24251 0.02351,12.00408 1.998816,1.0828 16.230329,0.21099 20.698931,-1.38498 z"
         id="path693"
         sodipodi:nodetypes="csssscsssscccc"
         clip-path="none" />
      <g
         aria-label="NSPECT"
         id="text12530"
         style="font-size:63.1095px;line-height:1.25;font-family:Trueno;-inkscape-font-specification:Trueno;letter-spacing:0px;word-spacing:0px;display:inline;fill:url(#linearGradient1007);stroke-width:0.315547">
        <path
           d="m -34.138316,167.60379 h 10.539287 V 140.4036 l 20.3212593,27.20019 H 6.630422 V 123.42714 H -3.8457552 v 27.2633 l -20.3843688,-27.2633 h -9.908192 z"
           style="font-weight:bold;-inkscape-font-specification:'Trueno Bold'"
           id="path6093" />
        <path
           d="m 12.120904,160.91418 c 5.238088,4.29145 12.811228,7.06827 20.19504,7.06827 9.845082,0 17.67066,-4.67011 17.67066,-13.50544 0,-15.9667 -23.350515,-11.61214 -23.350515,-19.24839 0,-2.14573 1.956395,-3.21859 4.859432,-3.21859 3.597241,0 9.466425,1.89329 14.136528,4.607 l 4.228336,-8.77223 c -4.543884,-2.96614 -11.044162,-4.92254 -17.418222,-4.92254 -10.602396,0 -17.607551,5.17498 -17.607551,13.31611 0,15.65115 23.350516,10.98105 23.350516,18.80663 0,2.52438 -2.208833,3.84968 -5.742965,3.84968 -4.606993,0 -11.42282,-2.6506 -15.966704,-6.6265 z"
           style="font-weight:bold;-inkscape-font-specification:'Trueno Bold'"
           id="path6095" />
        <path
           d="m 56.108167,167.60379 h 11.233491 v -12.43257 h 8.014907 c 11.296601,0 17.796879,-5.9954 17.796879,-16.34536 0,-9.84508 -6.500278,-15.39872 -17.796879,-15.39872 H 56.108167 Z m 11.233491,-21.2679 v -14.07342 h 7.446921 c 4.922542,0 7.762469,2.33505 7.762469,6.94204 0,4.67011 -2.839927,7.13138 -7.762469,7.13138 z"
           style="font-weight:bold;-inkscape-font-specification:'Trueno Bold'"
           id="path6097" />
        <path
           d="m 99.022527,167.60379 h 35.278213 v -8.83533 h -24.04472 v -8.89844 h 21.07857 v -8.83533 h -21.07857 v -8.77222 h 23.35051 v -8.83533 H 99.022527 Z"
           style="font-weight:bold;-inkscape-font-specification:'Trueno Bold'"
           id="path6099" />
        <path
           d="m 138.65527,145.38925 c 0,12.93744 9.90819,22.71942 23.2243,22.71942 6.50028,0 13.50543,-3.21859 18.23864,-8.07802 l -6.56338,-6.94204 c -3.09237,3.15547 -7.38382,5.17497 -11.10728,5.17497 -7.00515,0 -12.30635,-5.61674 -12.30635,-13.00055 0,-7.2576 5.3012,-12.81123 12.30635,-12.81123 3.91279,0 8.20424,2.20883 11.10728,5.74296 l 6.50027,-7.69936 c -4.41766,-4.54388 -11.23349,-7.44692 -17.79687,-7.44692 -13.44233,0 -23.60296,9.59265 -23.60296,22.34077 z"
           style="font-weight:bold;-inkscape-font-specification:'Trueno Bold'"
           id="path6101" />
        <path
           d="m 181.25416,132.4518 h 13.18989 v 35.15199 h 11.23349 V 132.4518 h 13.31611 v -9.08777 h -37.73949 z"
           style="font-weight:bold;-inkscape-font-specification:'Trueno Bold'"
           id="path6103" />
      </g>
      <g
         id="g22023"
         transform="matrix(1.0807979,-0.09265706,0.09265706,1.0807979,-37.115855,125.87265)"
         style="display:inline;fill:url(#linearGradient1888);fill-opacity:1">
        <g
           id="g20732"
           style="display:inline;fill:url(#linearGradient1624);fill-opacity:1">
          <path
             style="display:inline;fill:url(#linearGradient1620);fill-opacity:1;stroke:#726a00;stroke-width:0.0443939;stroke-linecap:butt;stroke-linejoin:miter;stroke-miterlimit:4;stroke-dasharray:0, 0.488333;stroke-dashoffset:0;stroke-opacity:1"
             d="m 18.425373,22.038658 0.0874,-3.095336 3.344926,-0.04632 7.751231,12.182652 -0.07561,3.195295 -3.455237,-0.06573 z"
             id="path26679-0"
             sodipodi:nodetypes="ccccccc" />
          <path
             id="path27045-7"
             style="fill:url(#linearGradient1622);fill-opacity:1;stroke:#ff0000;stroke-width:0.300424;stroke-dasharray:0, 3.30467"
             inkscape:transform-center-x="0.60428994"
             inkscape:transform-center-y="0.15107248"
             d="m 17.880166,4.007877 a 13.67403,13.67403 0 0 0 -13.674101,13.674101 13.67403,13.67403 0 0 0 13.674101,13.6741 13.67403,13.67403 0 0 0 3.59978,-0.48731 L 17.066779,23.7121 a 6.0915454,6.0915454 0 0 1 -5.278231,-6.030122 6.0915454,6.0915454 0 0 1 6.091618,-6.091618 6.0915454,6.0915454 0 0 1 6.091618,6.091618 6.0915454,6.0915454 0 0 1 -0.01395,0.280086 l 4.874121,7.896676 a 13.67403,13.67403 0 0 0 2.722314,-8.176762 13.67403,13.67403 0 0 0 -13.6741,-13.674101 z" />
        </g>
      </g>
      <path
         id="path22800"
         clip-path="none"
         style="fill:url(#linearGradient22804);fill-opacity:1;stroke:#000000;stroke-width:0;stroke-linecap:butt;stroke-linejoin:miter;stroke-miterlimit:4;stroke-dasharray:none;stroke-opacity:1"
         d="m -11.097344,155.9839 c -9.938986,2.1645 -15.244446,0.81634 -23.040971,0.17622 0,0 0.0034,1.24235 0.02325,12.00392 1.998816,1.0828 16.230392,0.21103 20.698994,-1.38493 2.508969,-0.65135 5.0497111,-1.43496 7.6140048,-2.23759 z m 226.835244,3.61477 c -7.76764,4.06073 -15.13831,7.1077 -22.93658,8.59327 l -0.80667,3.80339 c 1.20102,-0.27344 2.3319,-0.5493 3.3383,-0.80822 10.85063,-2.7916 20.40495,-11.58844 20.40495,-11.58844 z" />
    </g>
  </g>
</svg>
