<?xml version="1.0" encoding="UTF-8" standalone="no"?>
<!-- Created with Inkscape (http://www.inkscape.org/) -->

<svg
   width="169.20007"
   height="180.00009"
   viewBox="0 0 44.767518 47.625026"
   version="1.1"
   id="svg1002"
   inkscape:version="1.1 (c68e22c387, 2021-05-23)"
   sodipodi:docname="final_logo.svg"
   inkscape:export-filename="C:\Users\davee\Downloads\final_logo.png"
   inkscape:export-xdpi="278"
   inkscape:export-ydpi="278"
   xmlns:inkscape="http://www.inkscape.org/namespaces/inkscape"
   xmlns:sodipodi="http://sodipodi.sourceforge.net/DTD/sodipodi-0.dtd"
   xmlns="http://www.w3.org/2000/svg"
   xmlns:svg="http://www.w3.org/2000/svg">
  <sodipodi:namedview
     id="namedview1004"
     pagecolor="#ffffff"
     bordercolor="#666666"
     borderopacity="1.0"
     inkscape:pageshadow="2"
     inkscape:pageopacity="0.0"
     inkscape:pagecheckerboard="0"
     inkscape:document-units="mm"
     showgrid="false"
     fit-margin-top="20"
     fit-margin-right="20"
     fit-margin-bottom="20"
     fit-margin-left="20"
     units="px"
     inkscape:zoom="4.1205921"
     inkscape:cx="90.642313"
     inkscape:cy="87.366085"
     inkscape:window-width="3747"
     inkscape:window-height="2126"
     inkscape:window-x="2869"
     inkscape:window-y="-11"
     inkscape:window-maximized="1"
     inkscape:current-layer="layer1" />
  <defs
     id="defs999" />
  <g
     inkscape:label="Layer 1"
     inkscape:groupmode="layer"
     id="layer1"
     transform="translate(-97.793186,-175.73166)">
    <text
       xml:space="preserve"
       style="font-size:52.9167px;line-height:1.25;font-family:Trueno;-inkscape-font-specification:Trueno;letter-spacing:0px;word-spacing:0px;display:inline;fill:#0055d4;fill-opacity:1;stroke-width:0.264583"
       x="99.380684"
       y="218.06502"
       id="text2522"
       inkscape:export-filename="C:\Users\davee\Documents\Work\QNSPECT\logo_v1.png"
       inkscape:export-xdpi="278"
       inkscape:export-ydpi="278"><tspan
         sodipodi:role="line"
         id="tspan2520"
         style="font-style:normal;font-variant:normal;font-weight:bold;font-stretch:normal;font-family:Trueno;-inkscape-font-specification:'Trueno Bold';fill:#0055d4;fill-opacity:1;stroke-width:0.264583"
         x="99.380684"
         y="218.06502">N</tspan></text>
    <g
       id="g20732"
       transform="matrix(0.90426941,-0.07911333,0.07911333,0.90426941,102.26998,185.40137)">
      <path
         style="display:inline;fill:#698a41;fill-opacity:1;stroke:#726a00;stroke-width:0.0443939;stroke-linecap:butt;stroke-linejoin:miter;stroke-miterlimit:4;stroke-dasharray:0, 0.488333;stroke-dashoffset:0;stroke-opacity:1"
         d="m 18.425373,22.038658 0.0874,-3.095336 3.344926,-0.04632 7.751231,12.182652 -0.07561,3.195295 -3.455237,-0.06573 z"
         id="path26679"
         sodipodi:nodetypes="ccccccc" />
      <path
         id="path27045"
         style="fill:#698a41;fill-opacity:1;stroke:#ff0000;stroke-width:0.300424;stroke-dasharray:0, 3.30467"
         inkscape:transform-center-x="0.60428994"
         inkscape:transform-center-y="0.15107248"
         d="m 17.880166,4.007877 a 13.67403,13.67403 0 0 0 -13.674101,13.674101 13.67403,13.67403 0 0 0 13.674101,13.6741 13.67403,13.67403 0 0 0 3.59978,-0.48731 L 17.066779,23.7121 a 6.0915454,6.0915454 0 0 1 -5.278231,-6.030122 6.0915454,6.0915454 0 0 1 6.091618,-6.091618 6.0915454,6.0915454 0 0 1 6.091618,6.091618 6.0915454,6.0915454 0 0 1 -0.01395,0.280086 l 4.874121,7.896676 a 13.67403,13.67403 0 0 0 2.722314,-8.176762 13.67403,13.67403 0 0 0 -13.6741,-13.674101 z" />
    </g>
  </g>
</svg>
